<?xml version="1.0" standalone="no"?>
<!DOCTYPE svg PUBLIC "-//W3C//DTD SVG 20010904//EN"
 "http://www.w3.org/TR/2001/REC-SVG-20010904/DTD/svg10.dtd">
<svg version="1.0" xmlns="http://www.w3.org/2000/svg"
 width="512.000000pt" height="512.000000pt" viewBox="0 0 512.000000 512.000000"
 preserveAspectRatio="xMidYMid meet">

<g transform="translate(0.000000,512.000000) scale(0.100000,-0.100000)"
fill="#000000" stroke="none">
<path d="M2401 3806 c-50 -28 -64 -89 -33 -141 25 -41 199 -210 216 -210 23 0
202 171 221 211 31 65 2 134 -62 150 -52 13 -120 -16 -136 -58 -9 -24 -24 -23
-37 3 -27 50 -116 74 -169 45z"/>
<path d="M2225 3522 c-47 -4 -111 -44 -142 -91 -31 -46 -39 -96 -23 -151 25
-88 26 -83 -32 -104 -75 -26 -145 -80 -185 -144 -32 -49 -37 -53 -61 -46 -57
16 -145 9 -195 -15 -55 -27 -105 -92 -114 -147 -8 -46 -23 -51 -70 -21 -61 39
-129 58 -207 58 -82 1 -117 -7 -166 -34 -49 -27 -87 -65 -118 -117 -22 -37
-27 -57 -27 -115 0 -84 19 -130 77 -186 23 -23 37 -43 32 -48 -5 -4 -40 -18
-78 -30 -111 -35 -207 -116 -248 -210 -28 -63 -29 -185 -2 -238 27 -52 90
-119 133 -140 48 -24 51 -46 6 -63 -19 -7 -35 -17 -35 -22 0 -4 -5 -8 -11 -8
-18 0 -107 -68 -178 -135 -58 -55 -141 -155 -141 -171 0 -3 -11 -27 -23 -53
-40 -78 -51 -142 -33 -185 8 -20 19 -36 25 -36 5 0 33 25 63 56 48 51 235 194
253 194 4 0 20 9 35 20 40 28 155 84 247 120 43 17 87 34 98 39 11 5 38 14 60
20 63 17 148 42 175 51 14 5 52 14 85 20 33 6 76 15 95 20 36 9 119 24 227 40
443 68 1214 68 1683 0 137 -19 206 -31 240 -40 19 -5 62 -14 95 -20 33 -7 71
-16 85 -20 14 -5 52 -16 85 -25 88 -24 209 -66 220 -76 5 -5 15 -9 23 -9 21 0
195 -85 282 -138 103 -62 153 -101 241 -188 l76 -75 17 25 c53 82 -28 273
-181 424 -65 65 -206 167 -257 185 -18 7 -18 8 -1 27 10 11 23 20 30 20 18 0
110 91 127 125 32 63 40 126 25 190 -19 81 -41 120 -96 175 -48 47 -125 90
-200 111 -23 7 -45 18 -47 24 -3 7 12 30 33 52 58 62 62 69 75 123 21 91 -26
206 -109 266 -68 49 -187 70 -284 49 -41 -9 -118 -43 -141 -63 -25 -21 -42
-10 -55 39 -16 59 -62 112 -125 143 -56 28 -100 32 -163 15 -36 -10 -41 -9
-55 11 -46 68 -119 135 -177 161 -34 16 -66 29 -72 29 -16 0 -14 29 6 85 14
41 14 56 4 94 -27 102 -99 153 -217 153 -60 0 -81 -4 -124 -28 -78 -43 -139
-128 -169 -239 -5 -22 -13 -50 -16 -62 -10 -37 -20 -27 -32 32 -17 79 -64 174
-109 218 -65 64 -136 87 -239 79z m158 -191 c47 -18 97 -73 127 -140 17 -36
35 -74 41 -83 5 -10 9 -25 9 -35 0 -9 5 -31 12 -50 6 -18 9 -35 6 -39 -4 -3
-40 28 -80 69 -78 78 -161 127 -243 141 -85 15 -95 31 -50 84 45 54 118 75
178 53z m543 -7 c39 -19 74 -62 74 -93 0 -15 -10 -23 -37 -30 -21 -6 -44 -11
-52 -11 -8 0 -47 -16 -87 -35 -55 -27 -89 -53 -142 -110 -39 -42 -73 -72 -76
-67 -7 12 41 159 72 221 60 118 158 168 248 125z m-476 -414 c54 -28 105 -76
120 -115 16 -40 26 -44 35 -14 11 35 76 99 124 123 136 68 282 28 343 -94 38
-75 36 -117 -9 -207 -30 -61 -54 -89 -142 -171 -58 -53 -154 -144 -214 -202
-60 -58 -112 -106 -115 -107 -8 -2 -418 400 -442 433 -54 74 -73 160 -50 228
15 46 62 101 104 123 65 34 181 35 246 3z m-672 -170 c59 -42 77 -87 76 -187
0 -45 -6 -94 -11 -110 -6 -15 -19 -56 -28 -91 -22 -76 -37 -92 -65 -67 -11 10
-20 26 -20 36 0 10 -4 20 -8 23 -5 3 -21 38 -37 78 -15 40 -33 80 -39 88 -7 8
-18 29 -26 45 -8 17 -30 52 -48 78 -32 45 -34 50 -21 74 22 41 67 63 130 63
46 0 63 -5 97 -30z m1827 -1 c41 -36 44 -59 13 -102 -45 -62 -117 -204 -157
-305 -23 -58 -47 -76 -64 -47 -13 23 -38 99 -55 168 -16 64 -15 167 2 208 28
67 94 109 173 109 44 0 58 -5 88 -31z m-2185 -111 c54 -28 105 -93 158 -203
66 -136 68 -143 44 -167 l-21 -21 -73 35 c-40 19 -84 38 -98 41 -51 14 -55 21
-31 69 26 55 27 73 4 62 -10 -4 -38 -9 -63 -11 -36 -3 -53 1 -87 23 -72 47
-80 108 -23 165 25 25 36 29 87 29 41 0 72 -7 103 -22z m2521 5 c54 -32 67
-107 26 -151 -46 -50 -115 -66 -172 -40 -36 16 -42 3 -17 -43 35 -65 34 -66
-53 -99 -11 -4 -46 -20 -77 -34 -55 -26 -58 -26 -83 -10 -14 9 -25 17 -25 18
0 1 11 26 25 54 14 29 25 56 25 62 0 13 34 74 83 148 32 47 54 69 91 87 60 30
134 33 177 8z m-725 -170 c3 -10 10 -26 15 -35 5 -10 9 -23 9 -28 0 -11 40
-104 61 -142 14 -28 11 -46 -16 -86 -19 -28 -25 -49 -25 -94 0 -31 -3 -59 -7
-61 -5 -3 -46 -1 -93 4 -47 4 -152 11 -233 15 -105 5 -150 11 -154 20 -4 11
146 162 337 340 41 38 76 72 78 77 6 13 23 7 28 -10z m-1182 -30 c43 -38 258
-239 339 -318 27 -25 47 -52 44 -59 -3 -8 -67 -16 -218 -24 -118 -7 -226 -15
-240 -18 -26 -6 -26 -5 -31 59 -4 45 -14 78 -32 110 -21 35 -25 50 -17 64 25
47 63 138 85 206 8 25 24 21 70 -20z m-744 -205 c64 -15 193 -59 208 -71 10
-8 12 -23 7 -53 -4 -30 0 -57 15 -95 19 -51 19 -55 3 -66 -9 -7 -26 -13 -37
-13 -11 0 -33 -4 -50 -9 -103 -31 -139 -39 -151 -35 -7 3 -15 26 -19 52 -7 50
-41 98 -85 122 -36 19 -142 16 -174 -4 -27 -18 -67 -93 -67 -126 0 -34 39
-100 65 -112 30 -14 32 -25 5 -33 -61 -19 -164 50 -190 130 -20 62 23 164 99
232 99 89 223 116 371 81z m2850 -5 c155 -51 270 -227 215 -332 -21 -42 -91
-98 -129 -105 -53 -10 -91 15 -48 31 57 22 81 116 47 183 -26 51 -69 73 -141
73 -54 0 -69 -5 -100 -28 -39 -30 -64 -78 -64 -124 0 -37 -22 -45 -74 -27 -23
8 -70 20 -105 28 -86 17 -96 25 -80 63 7 17 15 63 18 103 l6 74 70 25 c165 59
281 70 385 36z"/>
<path d="M1366 3109 c-14 -17 -26 -34 -26 -39 0 -5 -25 -6 -55 -3 -65 7 -95
-12 -95 -59 0 -45 22 -62 157 -117 28 -11 54 -21 56 -21 3 0 14 19 25 43 73
157 75 171 39 205 -33 31 -70 28 -101 -9z"/>
<path d="M3722 3117 c-29 -31 -28 -54 9 -145 46 -111 42 -109 135 -71 76 31
134 75 134 103 0 7 -9 25 -21 40 -16 20 -29 26 -59 26 -21 0 -42 -4 -45 -10
-9 -15 -25 -12 -25 4 0 23 -59 76 -84 76 -12 0 -32 -10 -44 -23z"/>
<path d="M527 1816 c-13 -20 -14 -29 -4 -55 10 -27 8 -33 -11 -54 -29 -30 -28
-53 2 -73 23 -14 28 -14 59 1 18 8 48 28 66 43 36 30 35 36 -19 112 -40 58
-67 66 -93 26z"/>
<path d="M4553 1788 c-60 -81 -60 -83 0 -122 68 -44 91 -51 111 -31 22 22 20
51 -5 76 -17 17 -19 25 -11 48 13 36 -5 75 -35 79 -16 2 -31 -10 -60 -50z"/>
</g>
</svg>
